<svg xmlns="http://www.w3.org/2000/svg" viewBox="0 0 24 24"><path d="M17 3h-1c-.6 0-1 .4-1 1s.4 1 1 1h1c1.1 0 2 .9 2 2v1.1c0 .6.4 1 1 1s1-.4 1-1V7c0-2.2-1.8-4-4-4zm3 12c-.6 0-1 .4-1 1v1c0 1.1-.9 2-2 2h-.7c2-2.1 2-5 2-5.1 0-.6-.4-1-1-1-.5 0-1 .4-1 1 0 0 0 2.3-1.5 3.8-.4.4-.4 1 0 1.4.1.1.3.2.4.2-.1.2-.2.4-.2.7 0 .6.4 1 1 1h1c2.2 0 4-1.8 4-4v-1c0-.6-.4-1-1-1zM8 19H7c-.7 0-1.4-.4-1.7-1 1.5-.4 2.7-1.2 3.5-2.2.5-.6.8-1.3 1.1-2 .4-1.1.3-2.1.3-2.3v-.1c-.1-.5.1-.9.4-1.3s.7-.6 1.2-.6.9.1 1.3.4c.4.3.6.7.6 1.2 0 .1.1 1.3-.2 2.9-.1.5.2 1.1.8 1.2.5.1 1.1-.2 1.2-.8.4-1.8.3-3.2.2-3.5-.1-1-.6-1.9-1.4-2.5-.8-.6-1.7-.9-2.7-.8-1.1 0-2 .4-2.6 1.2-.6.8-.9 1.7-.8 2.7 0 .1 0 .8-.2 1.7-.2.5-.4 1-.7 1.4-.6.6-1.3 1.1-2.3 1.4 0-.5-.4-1-1-1s-1 .4-1 1v1c0 2.2 1.8 4 4 4h1c.6 0 1-.4 1-1s-.4-1-1-1zM4 9c.6 0 1-.4 1-1V7c0-1.1.9-2 2-2h1c.6 0 1-.4 1-1s-.4-1-1-1H7C4.8 3 3 4.8 3 7v1c0 .5.4 1 1 1z"/><path d="M13.9 15.9c-.5-.3-1.1-.1-1.3.4-.3.6-.7 1.2-1.1 1.7l-.3.3c-.4.4-.4 1 0 1.4.2.2.5.3.7.3s.5-.1.7-.3c.2-.2.3-.3.4-.5.5-.6 1-1.3 1.3-2 .3-.5.1-1.1-.4-1.3zm-1-4.9c-.1-.5-.5-.9-1.1-.9-.5.1-.9.6-.9 1.1 0 .2.4 3.8-2.7 6.1-.4.3-.5 1-.2 1.4.2.3.5.4.8.4.2 0 .4-.1.6-.2 4-2.9 3.5-7.7 3.5-7.9zm1-3.9c2.4 1 2.5 4 2.5 4.1 0 .6.4 1 1 1s1-.4 1-1c0-.2 0-4.4-3.7-5.9-.5-.2-1.1 0-1.3.5-.3.5 0 1 .5 1.3zM5.5 12c0 .6.4 1 1 1s1-.4 1-1c0 0 0-4.1 2.9-5.1.5-.2.8-.8.6-1.3-.2-.5-.8-.8-1.3-.6-4.2 1.5-4.2 6.8-4.2 7z"/></svg>