<svg xmlns="http://www.w3.org/2000/svg" data-name="Layer 1" viewBox="0 0 128 128"><path d="M29 20v93.986A3.997 3.997 0 0 0 32.97 118h62.06a3.997 3.997 0 0 0 3.97-4.014V20a2 2 0 0 0-4 0v94H33V20a2 2 0 0 0-4 0Z"/><path d="M104 6h-8v4h8a2.002 2.002 0 0 1 2 2v110a2.003 2.003 0 0 1-2 2H24a2.003 2.003 0 0 1-2-2V12a2.002 2.002 0 0 1 2-2h8V6h-8a6.007 6.007 0 0 0-6 6v110a6.007 6.007 0 0 0 6 6h80a6.007 6.007 0 0 0 6-6V12a6.007 6.007 0 0 0-6-6Z"/><path d="M40.213 16h47.574A4.462 4.462 0 0 0 92 11.334V4.667A4.462 4.462 0 0 0 87.787 0H40.213A4.462 4.462 0 0 0 36 4.667v6.667A4.462 4.462 0 0 0 40.213 16zM40 4.666A1.042 1.042 0 0 1 40.213 4l47.527-.009a.821.821 0 0 1 .26.675v6.667a.86.86 0 0 1-.245.667l-47.495.009a.821.821 0 0 1-.26-.675zM87 25H59a2 2 0 0 0 0 4h28a2 2 0 0 0 0-4zm0 8H59a2 2 0 0 0 0 4h28a2 2 0 0 0 0-4zm0 10H59a2 2 0 0 0 0 4h28a2 2 0 0 0 0-4zm0 8H59a2 2 0 0 0 0 4h28a2 2 0 0 0 0-4zm0 10H59a2 2 0 0 0 0 4h28a2 2 0 0 0 0-4zm0 8H59a2 2 0 0 0 0 4h28a2 2 0 0 0 0-4zm0 10H59a2 2 0 0 0 0 4h28a2 2 0 0 0 0-4zm0 8H59a2 2 0 0 0 0 4h28a2 2 0 0 0 0-4zm2 12a2 2 0 0 0-2-2H59a2 2 0 0 0 0 4h28a2 2 0 0 0 2-2zm-30 6a2 2 0 0 0 0 4h13a2 2 0 0 0 0-4zM42.297 34a1.99 1.99 0 0 0 .92-.225l7.705-4a2 2 0 1 0-1.844-3.55l-6.003 3.116-1.34-2.336a2 2 0 1 0-3.47 1.99l2.296 4A1.998 1.998 0 0 0 42.297 34zM52.775 45.08a2 2 0 0 0-2.697-.854l-6.003 3.116-1.34-2.336a2 2 0 1 0-3.47 1.99l2.296 4a1.998 1.998 0 0 0 2.656.78l7.705-4a2 2 0 0 0 .853-2.696zm0 18a2 2 0 0 0-2.697-.854l-6.003 3.117-1.34-2.337a2 2 0 1 0-3.47 1.99l2.296 4a2 2 0 0 0 2.656.78l7.705-4a2.001 2.001 0 0 0 .853-2.696zm0 18a2.002 2.002 0 0 0-2.697-.854l-6.003 3.117-1.34-2.337a2 2 0 0 0-3.47 1.99l2.296 4a2 2 0 0 0 2.656.78l7.705-4a2.002 2.002 0 0 0 .853-2.697zm-3.86 17.007a2 2 0 0 0-2.83 0L44 100.172l-2.086-2.086a2 2 0 0 0-2.828 2.828L41.172 103l-2.086 2.086a2 2 0 1 0 2.828 2.828L44 105.828l2.086 2.086a2 2 0 0 0 2.828-2.828L46.828 103l2.086-2.086a2 2 0 0 0 0-2.828z"/></svg>