<svg xmlns="http://www.w3.org/2000/svg" data-name="Layer 1" viewBox="0 0 32 32"><path d="M13.496,17.06976l.00989-2.65131a.5.5,0,0,0-.498-.502h-.002a.49992.49992,0,0,0-.5.498L12.496,17.07227A1.998,1.998,0,0,0,11,19a1.97325,1.97325,0,0,0,.08917.55835L9.15723,21.01758a.5003.5003,0,0,0,.60254.79883l1.84131-1.39081a1.99651,1.99651,0,1,0,1.8949-3.35583ZM13,20a1,1,0,1,1,1-1A1.001,1.001,0,0,1,13,20Zm17-1.94946V17.5a.5.5,0,0,0-1,0V18H25.94739a13.00418,13.00418,0,0,0-4.68982-9.02075l.6048-.6048.78265.78278a.49982.49982,0,0,0,.707,0L24.86377,7.645a.49982.49982,0,0,0,0-.707L22.59619,4.67041a.49982.49982,0,0,0-.707,0L20.37744,6.18213a.49982.49982,0,0,0,0,.707l.778.77814-.69983.69983A12.92029,12.92029,0,0,0,15.9624,6.34229c-.321-.0752-.64178-.12439-.9624-.17456V3.9079A1.49758,1.49758,0,0,0,16,2.5v-1A1.50164,1.50164,0,0,0,14.5,0h-3A1.50164,1.50164,0,0,0,10,1.5v1a1.49758,1.49758,0,0,0,1,1.4079V6.16284a13.04292,13.04292,0,0,0-5.59021,2.306l-.799-.79926.78027-.7804a.49982.49982,0,0,0,0-.707L3.87939,4.67041a.49982.49982,0,0,0-.707,0L.90479,6.938a.49982.49982,0,0,0,0,.707L2.4165,9.15723a.49982.49982,0,0,0,.707,0l.7804-.78052.7135.71375A12.9746,12.9746,0,0,0,10.0376,31.6582a13.12288,13.12288,0,0,0,2.981.3457,12.88512,12.88512,0,0,0,4.60712-.867A2.48431,2.48431,0,0,0,19.5,32h10A2.50263,2.50263,0,0,0,32,29.5v-9A2.50375,2.50375,0,0,0,30,18.05054ZM22.24268,5.731,23.80322,7.2915l-.80469.80518L21.438,6.53564ZM3.551,7.31543l-.00073.00049-.00049.00073-.77979.78L1.96533,7.2915,3.52588,5.731l.80469.80469ZM11,1.5a.50034.50034,0,0,1,.5-.5h3a.50034.50034,0,0,1,.5.5v1a.50034.50034,0,0,1-.5.5h-3a.50034.50034,0,0,1-.5-.5ZM14,4V6.05389a12.90424,12.90424,0,0,0-2-.01324V4ZM10.26514,30.68359A11.99965,11.99965,0,1,1,24.95129,18H23.93762a10.94358,10.94358,0,0,0-3.13855-6.68951c-.00836-.0097-.01154-.022-.02075-.03119-.00757-.00757-.01776-.01-.0257-.017a10.96879,10.96879,0,0,0-15.40741-.0885.46974.46974,0,0,0-.05078.03375c-.00928.00928-.01251.02161-.02087.03137a10.96258,10.96258,0,0,0-3.267,7.68823c-.00055.00977-.00562.01807-.00562.028l.00336.01672C2.00409,19.00073,2,19.02863,2,19.05762a10.96385,10.96385,0,0,0,3.20447,7.75146c.007.008.00958.01825.01721.02588s.01764.01.02551.017A10.9326,10.9326,0,0,0,17,29.29224V29.5a2.46641,2.46641,0,0,0,.13025.75842A11.90908,11.90908,0,0,1,10.26514,30.68359ZM17,20.5v7.71429a9.91477,9.91477,0,0,1-3.5.81616V27.5a.5.5,0,0,0-1,0v1.53229a9.94491,9.94491,0,0,1-6.19775-2.57062l1.08154-1.08081a.49995.49995,0,0,0-.707-.707L5.59528,25.75458a9.94554,9.94554,0,0,1-2.57513-6.2995H4.54443a.5.5,0,1,0,0-1H3.03052a9.94886,9.94886,0,0,1,2.63373-6.17072l1.0755,1.0755a.49995.49995,0,0,0,.707-.707L6.37811,11.58417A9.94368,9.94368,0,0,1,12.5,9.08246V10.5a.5.5,0,0,0,1,0V9.08148a9.95957,9.95957,0,0,1,6.20483,2.56415l-1.00757,1.0072a.49995.49995,0,1,0,.707.707l1.00909-1.00879A9.947,9.947,0,0,1,22.935,18H20v-.5a.5.5,0,0,0-1,0v.55054A2.50375,2.50375,0,0,0,17,20.5Zm14,9A1.50164,1.50164,0,0,1,29.5,31h-10A1.50164,1.50164,0,0,1,18,29.5V22H31ZM31,21H18v-.5a1.49758,1.49758,0,0,1,1-1.4079V19.5a.5.5,0,0,0,1,0V19h9v.5a.5.5,0,0,0,1,0v-.4079A1.49758,1.49758,0,0,1,31,20.5Zm-6.5,9a1.99155,1.99155,0,0,0,1.30878-3.5,2,2,0,1,0-2.61755,0A1.99155,1.99155,0,0,0,24.5,30Zm0-6a1,1,0,1,1-1,1A1.001,1.001,0,0,1,24.5,24Zm0,3a1,1,0,1,1-1,1A1.001,1.001,0,0,1,24.5,27Z"/></svg>